<?xml version="1.0" encoding="utf-8"?>
<!-- Generator: Adobe Illustrator 15.0.0, SVG Export Plug-In . SVG Version: 6.00 Build 0)  -->
<!DOCTYPE svg PUBLIC "-//W3C//DTD SVG 1.1//EN" "http://www.w3.org/Graphics/SVG/1.1/DTD/svg11.dtd">
<svg version="1.1" id="Layer_1" xmlns="http://www.w3.org/2000/svg" xmlns:xlink="http://www.w3.org/1999/xlink" x="0px" y="0px"
	 width="595.281px" height="171.521px" viewBox="0 324.445 595.281 171.521" enable-background="new 0 324.445 595.281 171.521"
	 xml:space="preserve">
<path id="Union_134" fill="#FFFFFF" d="M573.788,495.965H445.983c-1.844,0.042-3.373-1.417-3.416-3.261c0-0.023,0-0.047,0-0.07
	v-3.902h-18.578v3.171h-7.748v-7.563h7.748v3.577h18.579V471.41l3.33-3.658l-3.33-3.496v-2.846h30.827v2.846h-7.081v6.748h17.495
	v4.065h111.474c0,11.495-9.499,20.895-21.343,20.895C573.89,495.966,573.838,495.966,573.788,495.965z M443.9,492.634
	c0.036,1.173,0.993,2.107,2.166,2.114h127.802c10.748,0,19.496-8.13,20.162-18.456H443.9V492.634z M416.825,491.328h6.498v-6.34
	h-6.498V491.328z M443.235,464.096l3.166,3.33l0.417,0.407l-0.417,0.406l-3.166,3.496v3.33h39.99v-3.41H465.73v-8.048h7.083v-1.545
	h-29.578V464.096z M78.151,495.965v-1.383h18.828v-7.642h-9.497c-5.332,0-9.665-4.065-9.665-9.024c0-4.96,4.335-9.024,9.665-9.024
	h88.396v-6.424h-14.833c-0.524,0.027-0.971-0.375-0.999-0.899c-0.001-0.025-0.001-0.051-0.001-0.075l-0.083-33.901
	c-0.015-0.526,0.4-0.964,0.925-0.979c0.025-0.001,0.05,0,0.075,0.001h14.914V399.38h76.317v88.533h16.08v0.813h-16.08v7.077h-74.232
	v0.162H78.151z M177.295,494.582h73.483v-93.821h-73.483v69.025h0.084v16.423h-0.084V494.582z M167.047,494.582h8.748v-7.642h-8.748
	V494.582z M145.219,494.582h17.413v-7.642H145.22L145.219,494.582z M123.307,494.582h17.496v-7.642h-17.496L123.307,494.582z
	 M101.395,494.582h17.496v-7.642h-17.496L101.395,494.582z M164.131,494.339h1.502v-6.829h-1.5L164.131,494.339z M142.22,494.339
	h1.499v-6.829h-1.499V494.339z M120.309,494.339h1.5v-6.829h-1.5V494.339z M98.397,494.339h1.5v-6.829h-1.5V494.339z
	 M79.232,477.916c0,4.31,3.75,7.723,8.249,7.723v0.083h88.398v-15.529H87.483c-4.582,0-8.247,3.496-8.247,7.724H79.232z
	 M160.965,461.168c0.021,0.266,0.236,0.475,0.503,0.487h14.414v-4.064h-11.584c-0.417,0-0.75-0.244-0.75-0.487
	s0.333-0.488,0.75-0.488h11.581v-2.521h-11.581c-0.417,0-0.75-0.243-0.75-0.487s0.333-0.487,0.75-0.487h11.581v-3.253h-11.581
	c-0.417,0-0.75-0.243-0.75-0.486s0.333-0.488,0.75-0.488h11.581v-15.12h-14.997L160.965,461.168z M160.883,427.997v5.204h14.997
	v-5.69h-14.497C161.117,427.525,160.904,427.733,160.883,427.997z M343.174,493.038c-0.031-1.243,0.951-2.275,2.193-2.307
	c1.243-0.03,2.275,0.952,2.307,2.194c0.031,1.243-0.951,2.275-2.194,2.306c-0.019,0.001-0.038,0.001-0.056,0.001
	c-1.223,0.02-2.23-0.955-2.25-2.178C343.174,493.049,343.174,493.043,343.174,493.038z M343.84,493.038
	c0.039,0.851,0.73,1.525,1.582,1.544c0.854,0.024,1.564-0.647,1.59-1.5c0.023-0.854-0.648-1.564-1.501-1.589
	c-0.029-0.001-0.06-0.001-0.089,0C344.571,491.512,343.879,492.187,343.84,493.038z M316.18,493.038
	c-0.03-1.243,0.952-2.274,2.194-2.305c1.243-0.031,2.274,0.951,2.305,2.193s-0.952,2.274-2.194,2.305
	c-0.018,0.001-0.037,0.001-0.056,0.001c-1.222,0.02-2.229-0.955-2.249-2.177C316.18,493.05,316.18,493.044,316.18,493.038z
	 M316.847,493.038c-0.021,0.874,0.67,1.6,1.544,1.621c0.875,0.021,1.601-0.669,1.622-1.544c0.021-0.874-0.67-1.6-1.544-1.621
	c-0.014-0.001-0.026-0.001-0.04-0.001c-0.831-0.041-1.54,0.6-1.581,1.432C316.846,492.962,316.846,493,316.847,493.038z
	 M407.909,491.899v-7.561h7.748v7.561H407.909z M408.492,491.33h6.497v-6.342h-6.496L408.492,491.33z M399.577,491.899v-7.561h7.748
	v7.561H399.577z M400.161,491.33h6.498v-6.342h-6.497L400.161,491.33z M391.246,491.899v-7.561h7.748v7.561H391.246z
	 M391.829,491.33h6.499v-6.342h-6.497L391.829,491.33z M382.914,491.899v-3.17h-32.991v-0.813h32.992v-3.577h7.748v7.561
	L382.914,491.899z M383.498,491.33h6.499v-6.342h-6.498L383.498,491.33z M278.438,491.899h-10.164v-3.008
	c0.021-1.727,1.438-3.11,3.165-3.089c0,0,0.001,0,0.002,0h1.064c-0.515-0.345-0.823-0.925-0.816-1.545v-0.65h-4.084
	c-1.028,0.029-1.886-0.78-1.916-1.809c0-0.021-0.001-0.041-0.001-0.062v-5.854c0-1.058,0.858-1.916,1.917-1.916
	s1.917,0.858,1.917,1.916v3.984h2.166v-16.422c-0.005-1.029,0.826-1.867,1.854-1.871c0.021,0,0.042,0,0.063,0
	c1.029,0.029,1.863,0.843,1.917,1.871v11.951h2.166v-3.986c0-1.059,0.858-1.916,1.917-1.916c1.059,0,1.917,0.857,1.917,1.916l0,0
	v5.854c0.004,1.029-0.827,1.866-1.856,1.87c-0.02,0-0.04,0-0.061-0.001h-4.084v5.123c0.005,0.62-0.302,1.2-0.817,1.545h0.983
	c1.505,0.026,2.804,1.063,3.166,2.524v-0.411h35.575v-11.461c0.021-2.444,2.02-4.41,4.464-4.39c0.012,0,0.023,0,0.035,0h7.832
	v-3.577h2.667v-20.884c-10.928-0.865-19.497-9.773-19.497-20.661v-7.969h-3.083v-2.927h-6.908v17.971h-38.325v-34.798h17.579v-8.539
	h-2.417v-3.17h2.417v-11.707c0-14.389,11.997-26.098,26.744-26.098c6.555-0.012,12.891,2.356,17.828,6.666l1.75-1.706l2.25,2.194
	l-1.75,1.707c4.285,4.719,6.662,10.862,6.666,17.236v2.765h2.332v2.45c9.914,1.76,17.412,10.21,17.412,20.396v7.967h3.167v3.496
	h5.999v-10c0.035-2.271,1.896-4.086,4.166-4.065h32.076c2.245,0.038,4.072,1.82,4.164,4.065v24.228
	c-0.035,2.27-1.895,4.086-4.164,4.065h-32.076c-2.271,0.021-4.132-1.795-4.166-4.065v-10.485h-5.998v2.439h-3.168v7.887
	c0,10.75-8.352,19.568-19.078,20.625v20.92h2.833v3.577h10.914v4.958h-4.999l-2.666,13.496H314.43v-1.788h-35.506
	c0.005,0.054,0.01,0.108,0.013,0.162v3.009L278.438,491.899z M268.69,488.892v2.521h9.664v-2.521
	c-0.027-1.45-1.214-2.609-2.665-2.602h-4.333C269.907,486.283,268.719,487.441,268.69,488.892z M315.348,476.45v13.172h23.16
	l2.5-12.765l0.166-0.813h4.916v-3.008h-27.244c-1.904-0.011-3.464,1.512-3.498,3.416V476.45z M266.108,475.882v5.854
	c0.003,0.768,0.628,1.386,1.395,1.383c0.008,0,0.015,0,0.022,0h4.583v1.138c-0.025,0.739,0.554,1.358,1.292,1.384
	c0.042,0.002,0.083,0.001,0.124-0.001c0.766,0.016,1.4-0.593,1.417-1.359c0-0.008,0-0.016,0-0.023v-5.609h4.748
	c0.767,0.016,1.4-0.593,1.417-1.359c0-0.008,0-0.016,0-0.023v-5.854c-0.017-0.782-0.664-1.403-1.446-1.387
	c-0.759,0.016-1.371,0.628-1.387,1.387v4.472h-3.249V463.44c-0.016-0.782-0.664-1.403-1.446-1.387
	c-0.759,0.016-1.371,0.627-1.387,1.387v16.91h-3.249v-4.472c0.024-0.74-0.556-1.359-1.295-1.384
	c-0.041-0.001-0.081-0.001-0.121,0.001c-0.766-0.018-1.401,0.589-1.419,1.354c0,0.011,0,0.021,0,0.032L266.108,475.882z
	 M327.844,471.169h7.248v-1.627h-2.916V447.65c-0.33,0.015-0.665,0.021-0.999,0.021c-0.224,0-0.446-0.003-0.667-0.01v21.879h-2.666
	V471.169z M299.934,414.99h7.998v2.927h3.084v9.024c0,10.813,9.08,19.675,20.161,19.675s20.162-8.859,20.162-19.675v-8.94h3.082
	v-2.439h7.163v-1.626h-7.163v-3.496h-3.082v-9.026c0-10.813-9.082-19.675-20.162-19.675c-11.165,0-20.161,8.859-20.161,19.675v9.024
	h-3.084v2.927h-7.998V414.99z M262.775,432.955h36.076v-32.682h-36.076V432.955z M362.753,402.874v24.229
	c0.015,1.631,1.349,2.941,2.979,2.927c0.006,0,0.013,0,0.02,0h32.076c1.631,0.026,2.974-1.274,3-2.905c0-0.007,0-0.015,0-0.021
	v-24.227c-0.015-1.632-1.349-2.941-2.979-2.928c-0.007,0-0.015,0-0.021,0h-32.076c-1.631-0.024-2.974,1.276-2.999,2.907
	c0,0.007,0,0.014,0,0.021V402.874z M282.438,399.216h17.495v13.09h6.915v-2.926h3.083v-7.967c0-10.129,7.415-18.544,17.246-20.365
	v-2.48h2.251v-2.765c-0.004-5.55-2.051-10.904-5.75-15.041l-1.5,1.464l-2.249-2.195l1.5-1.464c-4.335-3.661-9.823-5.676-15.497-5.69
	c-12.914,0-23.494,10.242-23.494,22.928v11.706h2.25v3.17h-2.25V399.216z M277.604,389.788h2.501v9.431h1.416v-9.352h2.249v-1.382
	h-2.249v-12.602c0-13.09,10.915-23.82,24.412-23.82c5.926-0.031,11.664,2.076,16.162,5.935c0.241,0.165,0.465,0.354,0.666,0.565
	l-0.666,0.651l-0.916,0.895l1,0.976l0.918-0.892l0.666-0.65c0.215,0.198,0.41,0.416,0.583,0.65c3.876,4.272,6.017,9.84,5.999,15.609
	v3.658h-2.251v1.383h0.407c1.777-0.217,3.575-0.217,5.354,0h0.238v-1.383h-2.416v-3.658c-0.01-6.133-2.296-12.044-6.415-16.588
	c-0.171-0.236-0.367-0.455-0.583-0.651l0.666-0.649l1.082-1.057l-0.999-0.977l-1.083,1.058l-0.666,0.65
	c-0.201-0.237-0.425-0.455-0.667-0.65c-4.783-4.09-10.868-6.338-17.161-6.341c-14.248,0-25.826,11.3-25.826,25.202v12.606h-2.42
	V389.788z M180.294,490.518c-0.066-0.736,0.477-1.388,1.214-1.454c0.736-0.066,1.387,0.478,1.454,1.214
	c0.066,0.736-0.477,1.388-1.214,1.454c-0.04,0.003-0.08,0.005-0.12,0.005C180.923,491.767,180.327,491.222,180.294,490.518z
	 M340.424,490.518l2.416-12.357h7v12.357H340.424z M341.174,489.952h7.998v-11.142h-5.831L341.174,489.952z M575.286,489.135
	c-2.359,0.018-4.293-1.868-4.335-4.228h-1.082l1.417-1.301l1.416,1.301h-1.084c0.018,2.037,1.685,3.675,3.723,3.657
	c0.01,0,0.02,0,0.029-0.001h1.501c2.037,0.033,3.716-1.592,3.748-3.63c0-0.01,0.001-0.02,0.001-0.029h-1.166l1.416-1.3l1.417,1.3
	h-1.168c-0.041,2.36-1.976,4.246-4.335,4.229L575.286,489.135z M575.538,487.591v-6.342h-1.994
	c-0.129,0.251-0.389,0.408-0.672,0.407c-0.404,0.012-0.741-0.306-0.753-0.71c-0.013-0.404,0.306-0.741,0.71-0.753
	c0.014-0.001,0.029-0.001,0.043,0c0.248-0.002,0.482,0.12,0.623,0.324h2.043v-3.252h1.166v3.252h1.959
	c0.143-0.204,0.375-0.326,0.624-0.324c0.403-0.012,0.741,0.306,0.753,0.71s-0.307,0.741-0.71,0.753
	c-0.015,0.001-0.028,0.001-0.043,0c-0.283,0.002-0.543-0.155-0.673-0.407h-1.911v6.342H575.538z M403.744,483.771v-7.562h7.749
	v7.562H403.744z M404.328,483.201h6.497v-6.342h-6.498L404.328,483.201z M395.413,483.771v-7.562h7.748v7.562H395.413z
	 M395.996,483.201h6.498v-6.342h-6.499L395.996,483.201z M387.081,483.771v-7.562h7.749v7.562H387.081z M387.665,483.201h6.497
	v-6.342h-6.499L387.665,483.201z M159.633,477.997c-0.162-2.807,1.981-5.213,4.788-5.375s5.212,1.981,5.375,4.788
	s-1.981,5.213-4.788,5.375c-0.097,0.005-0.194,0.008-0.292,0.008c-2.709,0.098-4.984-2.021-5.081-4.729
	C159.633,478.041,159.633,478.02,159.633,477.997L159.633,477.997z M161.049,477.997c-0.145,2.024,1.38,3.783,3.404,3.927
	c2.024,0.145,3.783-1.38,3.927-3.404s-1.38-3.782-3.404-3.927c-0.087-0.007-0.174-0.01-0.261-0.01
	c-1.95-0.054-3.583,1.466-3.669,3.414H161.049z M137.723,477.997c0.06-2.71,2.305-4.857,5.014-4.798
	c0.022,0,0.044,0.001,0.066,0.002c2.833,0,5.166,2.194,5.083,4.796c-0.156,2.807-2.558,4.955-5.365,4.799
	C139.933,482.652,137.867,480.586,137.723,477.997z M139.139,478.079c-0.143,2.024,1.382,3.782,3.406,3.925
	c2.024,0.144,3.781-1.381,3.925-3.405c0.143-2.024-1.382-3.782-3.406-3.925c-0.086-0.007-0.173-0.01-0.26-0.01
	C140.854,474.612,139.224,476.132,139.139,478.079L139.139,478.079z M115.895,477.997c0.06-2.709,2.304-4.857,5.013-4.798
	c0.022,0,0.045,0.001,0.068,0.002c2.833,0,5.166,2.113,5.083,4.796c-0.153,2.807-2.552,4.958-5.359,4.805
	C118.106,482.661,116.036,480.59,115.895,477.997z M117.31,477.997c-0.144,2.024,1.38,3.783,3.405,3.927
	c2.024,0.145,3.783-1.38,3.927-3.404c0.144-2.024-1.38-3.782-3.405-3.927c-0.087-0.007-0.174-0.01-0.261-0.01
	C119.027,474.53,117.396,476.05,117.31,477.997L117.31,477.997z M94.065,477.997c0.06-2.71,2.304-4.857,5.014-4.798
	c0.022,0,0.045,0.001,0.068,0.002c2.724-0.069,4.993,2.072,5.082,4.796c-0.15,2.807-2.547,4.961-5.354,4.812
	C96.278,482.67,94.203,480.595,94.065,477.997L94.065,477.997z M95.481,477.997c-0.144,2.024,1.38,3.783,3.405,3.927
	c2.024,0.145,3.783-1.38,3.927-3.404c0.144-2.024-1.38-3.782-3.405-3.927c-0.087-0.007-0.174-0.01-0.261-0.01
	C97.063,474.583,95.397,476.128,95.481,477.997L95.481,477.997z M346.008,482.307v-0.977h2.416v0.977H346.008z M585.366,474.258
	v-7.561h7.748v7.563L585.366,474.258z M585.949,473.607h6.499v-6.345h-6.497L585.949,473.607z M577.036,474.258v-7.561h7.748v7.563
	L577.036,474.258z M577.618,473.607h6.5v-6.345h-6.498L577.618,473.607z M568.704,474.258v-7.561h7.748v7.563L568.704,474.258z
	 M569.286,473.607h6.5v-6.345h-6.497L569.286,473.607z M560.372,474.258v-7.561h7.748v7.563L560.372,474.258z M560.955,473.607
	h6.504v-6.345h-6.502L560.955,473.607z M552.04,474.258v-7.561h7.753v7.563L552.04,474.258z M552.624,473.607h6.498v-6.345h-6.495
	L552.624,473.607z M543.708,474.258v-7.561h7.748v7.563L543.708,474.258z M544.292,473.607h6.5v-6.345h-6.498L544.292,473.607z
	 M535.378,474.258v-7.561h7.748v7.563L535.378,474.258z M535.961,473.607h6.498v-6.345h-6.496L535.961,473.607z M527.046,474.258
	v-7.561h7.749v7.563L527.046,474.258z M527.629,473.607h6.498v-6.345h-6.496L527.629,473.607z M518.715,474.258v-7.561h7.748v7.563
	L518.715,474.258z M519.298,473.607h6.501v-6.345H519.3L519.298,473.607z M510.384,474.258v-7.561h7.749v7.563L510.384,474.258z
	 M510.967,473.607h6.5v-6.345h-6.496L510.967,473.607z M502.052,474.258v-7.561h7.748v7.563L502.052,474.258z M502.635,473.607h6.5
	v-6.345h-6.498L502.635,473.607z M493.721,474.258v-7.561h7.748v7.563L493.721,474.258z M494.304,473.607h6.499v-6.345h-6.497
	L494.304,473.607z M482.889,470.924h-3.581v-69.268h-49.155v51.218h-0.033l1.807,4.553h1.477v7.562h-7.748v-7.56h1.559l1.809-4.553
	h-0.033v-51.22h-1.167l5.415-2.358l49.405-21.301l0.75-0.325l0.582,0.565l24.995,21.301l2.5,2.113h-6.082v6.585h-6.418v-6.585
	h-15.08v69.272H482.889z M480.307,469.948h2.582v-68.292h-2.582V469.948z M426.321,464.339h6.497v-6.342h-6.495L426.321,464.339z
	 M427.903,457.427h3.33l-1.666-4.228L427.903,457.427z M499.552,407.671h5.249v-6.017h-5.249V407.671z M467.727,391.654h16.413
	v8.781h23.994l-24.995-21.301l-49.404,21.301h32.742v-8.779L467.727,391.654z M467.727,399.866h15.162v-6.991h-15.16
	L467.727,399.866z M191.292,468.404V420.6h45.073v47.805H191.292z M192.625,459.771v7.332h42.407v-7.392
	c-1.462-0.282-2.585-1.46-2.798-2.934h-2.628l0.011,4.712c-0.013,0.543-0.456,0.976-0.999,0.976l-30.076,0.081
	c-0.525,0.027-0.973-0.376-1-0.901c-0.001-0.024-0.001-0.05-0.001-0.074l-0.011-4.796h-1.688
	C195.604,458.404,194.267,459.65,192.625,459.771z M198.458,461.25c0.021,0.265,0.235,0.473,0.5,0.488l29.327-0.083
	c0.266-0.013,0.481-0.222,0.502-0.487l-0.014-4.39h-30.329L198.458,461.25z M192.625,459.137c1.572-0.153,2.721-1.552,2.568-3.123
	c-0.132-1.359-1.208-2.436-2.568-2.568V459.137z M232.866,456.291c0.023,1.302,0.907,2.431,2.165,2.765v-5.537
	C233.756,453.832,232.861,454.978,232.866,456.291z M229.536,427.592l0.069,28.213h2.631c0.213-1.475,1.336-2.651,2.798-2.934
	v-31.053h-42.407v30.993c1.641,0.121,2.978,1.365,3.216,2.993h1.685l-0.068-28.13c-0.014-0.525,0.4-0.962,0.925-0.977
	c0.025-0.001,0.05,0,0.075,0.001l30.076-0.082c0.525-0.027,0.973,0.377,1,0.901C229.536,427.543,229.537,427.567,229.536,427.592z
	 M198.377,433.852l0.066,21.951h30.327l-0.068-22.032L198.377,433.852z M198.876,427.51c-0.265,0.015-0.478,0.223-0.499,0.487v5.204
	l30.325-0.081v-5.204c-0.021-0.266-0.236-0.475-0.503-0.487L198.876,427.51z M455.901,467.755v-1.058h8.998v1.059L455.901,467.755z
	 M572.874,466.128v-7.562h7.748v7.562H572.874z M573.458,465.478h6.498v-6.342h-6.498V465.478z M564.542,466.128v-7.562h7.748v7.562
	H564.542z M565.125,465.478h6.498v-6.342h-6.5L565.125,465.478z M556.211,466.128v-7.562h7.747v7.562H556.211z M556.793,465.478
	h6.498v-6.342h-6.5L556.793,465.478z M547.879,466.128v-7.562h7.748v7.562H547.879z M548.462,465.478h6.499v-6.342h-6.502
	L548.462,465.478z M539.549,466.128v-7.562h7.747v7.562H539.549z M540.13,465.478h6.499v-6.342h-6.504L540.13,465.478z
	 M531.216,466.128v-7.562h7.747v7.562H531.216z M531.799,465.478h6.5v-6.342h-6.502L531.799,465.478z M522.884,466.128v-7.562h7.747
	v7.562H522.884z M523.468,465.478h6.499v-6.342h-6.502L523.468,465.478z M514.552,466.128v-7.562h7.747v7.562H514.552z
	 M515.134,465.478h6.501v-6.342h-6.502L515.134,465.478z M506.22,466.128v-7.562h7.747v7.562H506.22z M506.803,465.478h6.5v-6.342
	h-6.5V465.478z M103.813,461.574l-0.083-33.901c-0.014-0.525,0.4-0.962,0.925-0.977c0.025-0.001,0.05,0,0.075,0.001l30.077-0.082
	c0.499-0.052,0.945,0.311,0.997,0.81c0.006,0.056,0.006,0.111,0.002,0.167l0.083,33.901c-0.014,0.543-0.457,0.976-0.999,0.976
	l-30.077,0.082c-0.524,0.027-0.973-0.375-1-0.899c-0.001-0.025-0.001-0.051-0.001-0.077H103.813z M104.646,433.852l0.083,27.396
	c0.021,0.265,0.235,0.474,0.5,0.488l29.326-0.083c0.267-0.013,0.482-0.222,0.503-0.487l-0.083-27.396L104.646,433.852z
	 M105.149,427.51c-0.266,0.014-0.481,0.222-0.503,0.487v5.204l30.326-0.081v-5.204c-0.021-0.266-0.236-0.474-0.502-0.487
	L105.149,427.51z M552.046,457.997v-7.561h7.746v7.561H552.046z M552.63,457.347h6.498v-6.341h-6.502L552.63,457.347z
	 M543.715,457.997v-7.561h7.748v7.561H543.715z M544.298,457.347h6.499v-6.341h-6.504L544.298,457.347z M535.385,457.997v-7.561
	h7.748v7.561H535.385z M535.967,457.347h6.499v-6.341h-6.503L535.967,457.347z M527.053,457.997v-7.561h7.748v7.561H527.053z
	 M527.636,457.347h6.498v-6.341h-6.503L527.636,457.347z M518.721,457.997v-7.561h7.748v7.561H518.721z M519.305,457.347h6.494
	v-6.341H519.3L519.305,457.347z M108.065,456.94c-0.323-0.006-0.614-0.195-0.75-0.487c0-0.244,0.334-0.487,0.75-0.487h21.992
	c0.418,0,0.75,0.243,0.75,0.487s-0.332,0.487-0.75,0.487H108.065z M108.065,453.445c-0.332,0.027-0.641-0.174-0.75-0.488
	c0-0.243,0.334-0.487,0.75-0.487h18.996c0.417,0,0.75,0.244,0.75,0.487s-0.333,0.488-0.75,0.488H108.065z M23.165,451.331
	c-0.023-0.92,0.705-1.684,1.625-1.706s1.684,0.705,1.707,1.625s-0.705,1.684-1.625,1.706c-0.014,0.001-0.027,0.001-0.041,0.001
	C23.922,452.965,23.179,452.239,23.165,451.331z M23.667,451.331c-0.016,0.645,0.494,1.18,1.138,1.195
	c0.644,0.017,1.179-0.493,1.195-1.137c0.016-0.645-0.493-1.18-1.138-1.196c-0.01,0-0.02,0-0.029,0
	c-0.621-0.024-1.145,0.46-1.169,1.08c0,0.02-0.001,0.039,0,0.058H23.667z M6.171,451.331c-0.023-0.92,0.705-1.685,1.625-1.708
	c0.92-0.022,1.685,0.705,1.708,1.625c0.023,0.921-0.705,1.686-1.625,1.708c-0.014,0.001-0.029,0.001-0.043,0.001
	c-0.908,0.009-1.653-0.718-1.667-1.626H6.171z M6.673,451.331c0.021,0.631,0.535,1.132,1.165,1.139
	c0.628,0.021,1.155-0.472,1.176-1.101c0.021-0.628-0.472-1.154-1.1-1.176c-0.025-0.001-0.05-0.001-0.076,0
	c-0.632,0.003-1.149,0.506-1.17,1.138H6.673z M210.623,450.354l3.666-9.593h1.5l-3.667,9.593H210.623z M122.144,449.462h-14.829
	v-13.09h15.08v13.09H122.144z M121.597,448.648h0.047v-11.464h-13.417v11.464h1l2.832-4.147l1.293,1.847l3.372-4.936
	L121.597,448.648z M113.831,447.03l1.131,1.617h5.682l-3.916-5.854L113.831,447.03z M112.727,448.647h1.167l-0.584-0.854
	L112.727,448.647z M110.145,448.647h1.64l1.055-1.546l-0.778-1.138L110.145,448.647z M27.078,449.134H7
	c-3.134,0.032-5.703-2.476-5.748-5.609c0.002-0.766,0.626-1.385,1.392-1.382c0.008,0,0.017,0,0.025,0h1.417v-1.708h7.831v1.708
	H22.83v-1.708h7.498l0.167,0.488l1,2.114l0.251,0.487l-0.333,0.406l-3.666,4.879l-0.251,0.324H27.078z M2.168,443.443
	c0.038,2.68,2.235,4.824,4.915,4.798h20.08l3.666-4.879l-0.999-2.113h-6.249v1.708H10.999v-1.707h-6.08v1.707H2.67
	c-0.263-0.014-0.487,0.188-0.501,0.449C2.168,443.419,2.168,443.432,2.168,443.443z M216.622,447.591l4.916-1.948l-4.916-2.276
	v-1.301l6.583,3.171v0.813l-6.583,2.846V447.591z M203.292,446.047v-0.813l6.577-3.171v1.3l-4.916,2.195l4.916,1.952v1.383
	L203.292,446.047z M163.717,440.681c-0.063-2.577,1.975-4.718,4.551-4.78c2.577-0.063,4.717,1.975,4.78,4.552
	c0.063,2.576-1.975,4.717-4.551,4.78c-0.038,0-0.076,0.001-0.114,0.001c-2.542,0.036-4.632-1.996-4.668-4.538
	c0-0.005,0-0.01,0-0.015H163.717z M164.717,440.681c0.053,2.024,1.737,3.622,3.762,3.569c1.95-0.051,3.519-1.619,3.57-3.569
	c-0.013-1.989-1.636-3.591-3.625-3.578c-0.013,0-0.027,0-0.04,0.001c-1.994-0.008-3.626,1.584-3.668,3.577H164.717z M3.252,444.502
	v-0.569h3.416v0.569H3.252z M109.146,439.949c-0.02-0.828,0.635-1.516,1.463-1.536s1.516,0.635,1.536,1.463
	c0.02,0.828-0.635,1.516-1.463,1.536c-0.012,0-0.024,0-0.037,0c-0.814,0.014-1.485-0.636-1.499-1.449
	C109.146,439.958,109.146,439.953,109.146,439.949z M109.895,440.03c-0.01,0.414,0.318,0.758,0.732,0.768
	c0.414,0.011,0.758-0.317,0.768-0.731c0.01-0.414-0.317-0.758-0.731-0.769c-0.006,0-0.013,0-0.019,0
	c-0.38-0.033-0.715,0.248-0.749,0.628C109.893,439.961,109.892,439.995,109.895,440.03L109.895,440.03z M19.499,438.647v-0.565
	h14.913v0.565H19.499z M0.752,438.647v-0.565h14.913v0.565H0.752z M41.994,433.118l-0.081-30.486
	c0.01-0.498,0.417-0.896,0.916-0.895l12.997-0.039v-30.367h0.834v30.364l13.162-0.039c0.487,0.026,0.879,0.409,0.917,0.896
	l0.083,30.487c-0.011,0.498-0.418,0.896-0.916,0.894l-26.994,0.082C42.413,434.018,42.003,433.619,41.994,433.118L41.994,433.118z
	 M42.661,408.158l0.083,24.635c-0.011,0.214,0.154,0.396,0.369,0.407c0.016,0.001,0.032,0,0.048-0.001l26.328-0.081
	c0.25,0.023,0.473-0.157,0.502-0.406l-0.083-24.635L42.661,408.158z M42.661,402.956v4.634l27.243-0.082v-4.634
	c0.01-0.215-0.156-0.397-0.372-0.407c-0.015-0.001-0.03-0.001-0.045,0H43.075C42.827,402.49,42.643,402.708,42.661,402.956
	L42.661,402.956z M201.124,430.352c0.029-0.598,0.538-1.06,1.136-1.03c0.598,0.029,1.06,0.538,1.03,1.136
	c-0.028,0.578-0.505,1.032-1.084,1.032c-0.611-0.016-1.094-0.522-1.083-1.133V430.352z M163.632,430.352
	c0.029-0.598,0.538-1.06,1.136-1.03c0.599,0.029,1.06,0.538,1.031,1.136c-0.028,0.578-0.505,1.032-1.083,1.032
	c-0.611-0.016-1.095-0.521-1.083-1.133L163.632,430.352z M107.396,430.352c0.029-0.598,0.538-1.06,1.136-1.03
	c0.598,0.029,1.06,0.538,1.03,1.136c-0.028,0.578-0.505,1.032-1.083,1.032c-0.611-0.016-1.096-0.521-1.084-1.133L107.396,430.352z
	 M286.271,429.294l-0.584-1.22c-0.453-0.069-0.898-0.179-1.332-0.325l-1.083,0.895c-0.638-0.253-1.229-0.61-1.75-1.058l0.333-1.3
	c-0.35-0.342-0.657-0.724-0.916-1.138h-1.334c-0.281-0.594-0.477-1.223-0.583-1.871l1.084-0.731v-0.487
	c-0.014-0.328,0.014-0.655,0.082-0.977l-0.999-0.813c0.163-0.655,0.415-1.284,0.75-1.87l1.333,0.081
	c0.313-0.371,0.646-0.725,0.999-1.057l-0.251-1.301c0.586-0.347,1.199-0.646,1.833-0.895l0.998,0.976
	c0.438-0.099,0.885-0.153,1.334-0.163l0.75-1.219c0.731,0.006,1.449,0.201,2.083,0.565l0.167,1.383
	c0.417,0.194,0.809,0.44,1.166,0.731l1.25-0.487c0.503,0.438,0.926,0.961,1.25,1.544l-0.75,1.058
	c0.188,0.444,0.328,0.907,0.417,1.382l1.25,0.487v0.65c-0.015,0.438-0.07,0.874-0.167,1.302l-1.249,0.325
	c-0.16,0.448-0.355,0.883-0.584,1.3l0.667,1.14c-0.355,0.563-0.807,1.058-1.334,1.463l-1.249-0.568
	c-0.399,0.248-0.818,0.466-1.25,0.649l-0.251,1.302c-0.654,0.16-1.325,0.242-1.999,0.243L286.271,429.294z M284.521,427.18
	c0.408,0.121,0.827,0.203,1.25,0.244h0.333l0.166,0.326l0.417,0.894c0.366-0.014,0.729-0.068,1.083-0.162l0.167-0.976l0.083-0.325
	l0.333-0.081c0.412-0.14,0.803-0.331,1.167-0.569l0.251-0.162l0.333,0.162l0.917,0.407c0.27-0.253,0.521-0.526,0.75-0.817
	l-0.5-0.813l-0.167-0.325l0.167-0.325c0.202-0.392,0.369-0.799,0.5-1.219l0.083-0.326l0.333-0.081l0.917-0.244
	c0.069-0.265,0.097-0.539,0.083-0.813v-0.244l-0.833-0.326l-0.333-0.081l-0.084-0.325c-0.101-0.418-0.24-0.826-0.417-1.219
	l-0.166-0.325l0.166-0.245l0.502-0.731c-0.174-0.33-0.399-0.632-0.667-0.894l-0.917,0.324l-0.333,0.082l-0.251-0.244
	c-0.331-0.265-0.694-0.483-1.083-0.65l-0.333-0.162v-0.315l-0.083-0.976c-0.333-0.081-0.75-0.162-1.083-0.244l-0.417,1.139
	l-0.167,0.326h-0.333c-0.421,0.014-0.84,0.068-1.25,0.162l-0.333,0.081l-0.251-0.243l-0.75-0.65l-0.999,0.487l0.167,0.976
	l0.083,0.326l-0.251,0.243c-0.345,0.255-0.653,0.556-0.917,0.895l-0.166,0.244h-0.333l-0.917-0.082
	c-0.173,0.31-0.313,0.637-0.416,0.976l0.667,0.569l0.251,0.243l-0.084,0.325c-0.065,0.294-0.093,0.595-0.083,0.896v0.731
	l-0.251,0.162l-0.754,0.487c0.061,0.366,0.174,0.723,0.334,1.058h1.249l0.167,0.243c0.253,0.345,0.532,0.671,0.833,0.976
	l0.251,0.244l-0.083,0.324l-0.251,0.896c0.294,0.207,0.6,0.397,0.917,0.568l0.75-0.65l0.251-0.244L284.521,427.18z M45.743,428.323
	c-0.418,0-0.667-0.163-0.667-0.407c0-0.243,0.333-0.406,0.667-0.406h19.829c0.333,0,0.666,0.163,0.666,0.406
	s-0.333,0.407-0.666,0.407H45.743z M45.743,425.233c-0.418,0-0.667-0.244-0.667-0.406c0-0.244,0.333-0.407,0.667-0.407h17.08
	c0.332,0,0.666,0.164,0.666,0.407c0,0.244-0.334,0.406-0.666,0.406H45.743z M283.188,422.063c-0.042-1.749,1.34-3.201,3.089-3.243
	c1.749-0.043,3.201,1.34,3.243,3.088c0.042,1.749-1.34,3.201-3.089,3.243c-0.025,0.001-0.051,0.001-0.077,0.001
	c-1.727,0.022-3.145-1.36-3.167-3.087C283.188,422.064,283.188,422.063,283.188,422.063L283.188,422.063z M283.771,421.982
	c-0.035,1.426,1.093,2.61,2.52,2.645c1.426,0.035,2.611-1.093,2.646-2.52c0.035-1.426-1.093-2.61-2.52-2.645
	c-0.021-0.001-0.041-0.001-0.062-0.001C284.948,419.452,283.796,420.575,283.771,421.982L283.771,421.982z M387.914,422.308v-2.194
	h1.083v2.194c0.061,0.247-0.092,0.496-0.34,0.556c-0.053,0.014-0.108,0.017-0.162,0.01c-0.313,0.009-0.572-0.238-0.581-0.55
	C387.914,422.317,387.914,422.313,387.914,422.308L387.914,422.308z M383.498,422.308v-6.506h1.083v6.504
	c0.061,0.247-0.092,0.496-0.34,0.556c-0.053,0.014-0.108,0.017-0.162,0.01c-0.313,0.008-0.572-0.238-0.58-0.551
	C383.499,422.316,383.499,422.312,383.498,422.308L383.498,422.308z M379.083,422.308v-3.252h1.083v3.252
	c0.06,0.248-0.094,0.497-0.341,0.556c-0.053,0.013-0.107,0.017-0.162,0.01c-0.313,0.009-0.572-0.237-0.581-0.55
	C379.082,422.318,379.082,422.313,379.083,422.308L379.083,422.308z M374.667,422.308V413.2h1.084v9.188
	c0.084,0.245-0.165,0.488-0.502,0.488c-0.313,0.009-0.572-0.237-0.582-0.549C374.667,422.32,374.667,422.313,374.667,422.308
	L374.667,422.308z M45.742,421.982c-0.418,0-0.667-0.164-0.667-0.407s0.334-0.406,0.667-0.406h19.829
	c0.333,0,0.666,0.162,0.666,0.406c0,0.245-0.333,0.407-0.666,0.407H45.742z M553.292,419.462c-0.069-0.348-0.099-0.702-0.084-1.057
	c0.036-4.123,3.409-7.437,7.532-7.399c0.016,0,0.033,0,0.05,0c2.632,0.027,5.086,1.331,6.582,3.496h0.503
	c2.884-0.009,5.334,2.105,5.749,4.96H553.292z M553.795,418.567v0.406h18.996c-0.637-2.228-2.682-3.758-5-3.739h-0.916l-0.166-0.325
	c-1.273-2.038-3.514-3.269-5.916-3.252c-3.825,0.014-6.938,3.085-7.001,6.909L553.795,418.567z M45.243,414.34
	c-0.057-2.301,1.763-4.212,4.063-4.269s4.212,1.763,4.268,4.063c0.057,2.301-1.763,4.212-4.063,4.269
	c-0.034,0.001-0.068,0.001-0.102,0.001C47.14,418.425,45.279,416.609,45.243,414.34z M46.161,414.259
	c-0.043,1.795,1.376,3.284,3.171,3.328c1.794,0.043,3.285-1.377,3.328-3.171c0.043-1.795-1.376-3.285-3.171-3.328
	c-0.026-0.001-0.052-0.001-0.078-0.001c-1.773-0.021-3.228,1.398-3.251,3.172H46.161z M389.081,418.001h-1.084v-10.815
	c0-0.322,0.262-0.583,0.584-0.583s0.582,0.261,0.582,0.583v10.815H389.081z M57.322,417.92c-0.333,0-0.666-0.163-0.666-0.407
	s0.251-0.487,0.666-0.406h8.332c0.333,0,0.667,0.163,0.667,0.406s-0.333,0.407-0.667,0.407H57.322z M274.854,417.188l-0.583-1.219
	c-0.456,0.005-0.909-0.078-1.334-0.245l-1,0.817c-0.584-0.305-1.142-0.658-1.667-1.058l0.333-1.22
	c-0.322-0.315-0.602-0.67-0.833-1.057h-1.248c-0.281-0.565-0.477-1.168-0.583-1.789l1-0.731v-0.414
	c-0.014-0.327,0.014-0.655,0.083-0.976l-0.999-0.813c0.163-0.629,0.416-1.231,0.75-1.788l1.333,0.081
	c0.283-0.345,0.589-0.671,0.916-0.976l-0.251-1.301c0.539-0.379,1.128-0.68,1.75-0.895l0.916,0.895
	c0.439-0.094,0.885-0.148,1.334-0.162l0.667-1.14c0.733-0.003,1.453,0.194,2.082,0.569l0.084,1.302
	c0.416,0.243,0.833,0.487,1.167,0.731l1.249-0.407c0.434,0.479,0.824,0.997,1.166,1.546l-0.75,1.057
	c0.188,0.416,0.328,0.853,0.417,1.301l1.167,0.407v0.649c0.014,0.408-0.014,0.817-0.084,1.22l-1.249,0.326
	c-0.144,0.454-0.339,0.891-0.583,1.3l0.666,1.057c-0.401,0.501-0.848,0.964-1.334,1.383l-1.166-0.565
	c-0.363,0.236-0.755,0.427-1.166,0.565l-0.251,1.301c-0.626,0.161-1.27,0.242-1.916,0.243L274.854,417.188z M273.271,414.992
	c0.38,0.121,0.771,0.203,1.167,0.245h0.333l0.166,0.325l0.417,0.895c0.366-0.015,0.729-0.069,1.083-0.162l0.167-0.896l0.083-0.324
	l0.333-0.082c0.385-0.139,0.749-0.329,1.083-0.565l0.251-0.163l0.333,0.163l0.833,0.406c0.251-0.244,0.503-0.569,0.75-0.813
	l-0.417-0.816l-0.167-0.243l0.167-0.244c0.25-0.338,0.42-0.727,0.5-1.139l0.083-0.325l0.334-0.081l0.833-0.244
	c0.069-0.266,0.098-0.539,0.084-0.813v-0.245l-0.833-0.325l-0.333-0.081l-0.084-0.325c-0.102-0.418-0.241-0.826-0.416-1.219
	l-0.167-0.326l0.167-0.244l0.502-0.731c-0.197-0.291-0.42-0.563-0.667-0.813l-0.917,0.325l-0.333,0.081l-0.251-0.163
	c-0.331-0.265-0.695-0.483-1.084-0.65l-0.332-0.162v-0.326l-0.084-0.894c-0.332-0.083-0.75-0.164-1.082-0.245l-0.333,0.65
	l-0.167,0.245h-0.333c-0.393,0.02-0.783,0.073-1.167,0.162l-0.333,0.081l-0.251-0.245l-0.665-0.649l-1,0.487l0.167,0.894
	l0.083,0.326l-0.251,0.244c-0.318,0.257-0.599,0.559-0.833,0.895l-0.167,0.243h-0.332l-0.916-0.081
	c-0.174,0.31-0.313,0.637-0.417,0.976l0.667,0.565l0.251,0.245l-0.083,0.325c-0.065,0.293-0.094,0.594-0.083,0.895v0.731
	l-0.251,0.163l-0.75,0.487c0.074,0.337,0.186,0.664,0.334,0.976h1.248l0.167,0.245c0.181,0.372,0.436,0.703,0.75,0.975l0.251,0.244
	l-0.084,0.325l-0.251,0.895c0.274,0.235,0.584,0.427,0.917,0.566l0.75-0.566l0.251-0.163L273.271,414.992z M379.082,416.941v-9.677
	c0-0.322,0.261-0.583,0.583-0.583s0.583,0.261,0.583,0.583v9.677H379.082z M57.322,415.071c-0.415,0-0.666-0.164-0.666-0.407
	c0-0.244,0.333-0.405,0.666-0.405h6.083c0.333,0,0.665,0.162,0.665,0.405s-0.333,0.407-0.665,0.407H57.322z M384.665,413.688h-1.082
	v-6.503c0-0.322,0.26-0.583,0.582-0.583s0.582,0.261,0.582,0.583v6.504L384.665,413.688z M271.857,410.111
	c-0.042-1.702,1.305-3.116,3.007-3.157c1.702-0.042,3.116,1.305,3.158,3.007s-1.305,3.116-3.007,3.157
	c-0.026,0.001-0.053,0.001-0.079,0.001c-1.678,0.022-3.056-1.318-3.079-2.996C271.857,410.119,271.857,410.115,271.857,410.111z
	 M272.44,410.111c-0.008,1.339,1.071,2.432,2.41,2.439c0.03,0,0.06,0,0.089-0.001c1.35-0.017,2.449-1.089,2.5-2.438
	c-0.031-1.38-1.175-2.475-2.556-2.443C273.546,407.698,272.47,408.774,272.44,410.111z M325.01,406.29
	c0.035-3.357,2.784-6.051,6.142-6.017c0.009,0,0.017,0,0.024,0c1.111-0.003,2.203,0.289,3.164,0.847l1.668-1.903l-1.1,2.276
	c1.529,1.12,2.434,2.901,2.436,4.798c-0.084,3.404-2.913,6.097-6.318,6.013c-3.286-0.081-5.932-2.727-6.013-6.013L325.01,406.29z
	 M328.844,409.38l-0.943,0.922c0.78,0.604,1.714,0.978,2.695,1.08v-1.271h0.666c0.166,0,0.417-0.081,0.584-0.081v1.342
	c1.027-0.122,1.996-0.543,2.786-1.212l-0.953-0.861c0.317-0.229,0.599-0.504,0.835-0.816l0.914,0.828
	c0.57-0.761,0.912-1.669,0.986-2.616h-1.15v-0.569c0-0.162-0.084-0.405-0.084-0.565h1.197c-0.13-0.906-0.506-1.759-1.086-2.467
	l-0.861,0.84c-0.139-0.175-0.297-0.333-0.471-0.473l-1.529,3.156c-0.082,0.081-0.082,0.081-0.166,0.081
	c-0.33,0.497-0.995,0.642-1.5,0.326c-0.493-0.298-0.65-0.939-0.354-1.432c0.007-0.011,0.014-0.021,0.021-0.032l0.167-0.163
	l3.141-3.585c-0.637-0.345-1.338-0.556-2.059-0.62v1.278h-0.667c-0.167,0-0.416,0.082-0.583,0.082v-1.331
	c-0.977,0.132-1.898,0.535-2.658,1.164l0.992,0.898c-0.316,0.228-0.598,0.502-0.834,0.813l-0.963-0.874
	c-0.572,0.749-0.924,1.643-1.012,2.581h1.225c-0.066,0.181-0.096,0.373-0.082,0.565c0,0.164,0.082,0.407,0.082,0.569h-1.207
	c0.117,0.916,0.483,1.781,1.061,2.502l0.896-0.876C328.196,408.877,328.502,409.152,328.844,409.38z M57.322,411.981
	c-0.415,0-0.666-0.244-0.666-0.406c0-0.245,0.333-0.407,0.666-0.407h8.582c0.333,0,0.667,0.163,0.667,0.407
	c0,0.243-0.334,0.406-0.667,0.406H57.322z M375.833,411.006h-1.083v-3.739c0-0.322,0.261-0.583,0.583-0.583s0.584,0.261,0.584,0.583
	l0,0v3.739H375.833z M0.084,408.566c-0.069-0.349-0.097-0.704-0.082-1.059c0.042-4.172,3.458-7.52,7.629-7.478
	c0.012,0,0.024,0,0.037,0c2.642-0.014,5.113,1.3,6.582,3.495h0.503c2.938-0.035,5.441,2.128,5.832,5.041H0.084z M0.836,407.508
	v0.244h18.579c-0.68-2.044-2.595-3.42-4.749-3.414H14.25l-0.5,0.081l-0.251-0.406c-1.273-1.985-3.474-3.182-5.832-3.171
	C3.947,400.814,0.899,403.788,0.836,407.508z M180.294,404.743c-0.066-0.736,0.477-1.388,1.214-1.454
	c0.736-0.066,1.387,0.478,1.454,1.214c0.066,0.736-0.477,1.388-1.214,1.454c-0.04,0.003-0.08,0.005-0.12,0.005
	C180.923,405.992,180.327,405.447,180.294,404.743z M45.075,404.986c-0.014-0.553,0.423-1.011,0.976-1.024s1.011,0.423,1.024,0.976
	c0.014,0.552-0.423,1.011-0.976,1.024c-0.008,0-0.016,0-0.024,0c-0.544,0.007-0.992-0.429-1-0.973L45.075,404.986z M294.685,403.36
	c-0.014-0.552,0.423-1.011,0.976-1.024s1.011,0.424,1.024,0.976c0.014,0.553-0.423,1.011-0.976,1.024
	c-0.008,0-0.016,0.001-0.024,0.001C295.14,404.344,294.692,403.907,294.685,403.36C294.685,403.361,294.685,403.361,294.685,403.36z
	 M469.729,395.802v-0.813h6.165v0.813H469.729z M94.981,389.948c0.39-2.912,2.893-5.076,5.832-5.04h0.502
	c1.462-2.214,3.929-3.555,6.582-3.577c4.181-0.053,7.613,3.294,7.665,7.476c0,0.028,0,0.057,0.001,0.085
	c0.014,0.354-0.014,0.709-0.083,1.057H94.981z M95.98,389.055h18.746v-0.244c-0.063-3.72-3.112-6.694-6.833-6.666
	c-2.394,0.026-4.628,1.207-5.999,3.17l-0.251,0.407l-0.5-0.082h-0.417C98.585,385.667,96.688,387.031,95.98,389.055L95.98,389.055z
	 M65.738,374.502c-0.033-1.38,1.059-2.525,2.438-2.559c1.38-0.034,2.526,1.058,2.559,2.438c0.034,1.38-1.058,2.525-2.438,2.559
	c-0.02,0.001-0.041,0.001-0.061,0.001c-1.338,0.041-2.457-1.011-2.498-2.349C65.738,374.563,65.738,374.532,65.738,374.502z
	 M66.571,374.502c-0.023,0.921,0.705,1.686,1.625,1.708c0.92,0.023,1.685-0.704,1.708-1.625c0.023-0.92-0.705-1.685-1.625-1.708
	c-0.014,0-0.028,0-0.042,0C67.329,372.868,66.585,373.594,66.571,374.502z M40.743,374.502c-0.034-1.381,1.058-2.527,2.438-2.562
	c1.381-0.034,2.528,1.058,2.562,2.438c0.034,1.381-1.058,2.527-2.438,2.562c-0.021,0.001-0.041,0.001-0.062,0.001
	c-1.339,0.041-2.458-1.011-2.499-2.35C40.743,374.562,40.743,374.531,40.743,374.502z M41.576,374.502
	c-0.023,0.921,0.704,1.687,1.625,1.709c0.92,0.023,1.686-0.704,1.709-1.625c0.023-0.92-0.704-1.686-1.625-1.709
	c-0.014,0-0.028,0-0.042,0C42.335,372.868,41.59,373.594,41.576,374.502z M39.828,371.252h-0.667l-0.333-0.487l-5.415-7.156
	l-0.418-0.566l0.334-0.65l1.417-3.089l0.333-0.732h11.08v2.439h16.08v-2.443h11.414v2.521h2.083c1.085,0.001,1.971,0.866,2,1.951
	c-0.044,4.581-3.793,8.258-8.374,8.214c-0.014,0-0.027,0-0.041-0.001H39.828z M34.495,362.876l5.416,7.154h29.41
	c3.908,0.046,7.115-3.083,7.163-6.991c-0.003-0.407-0.335-0.735-0.743-0.731c-0.002,0-0.004,0-0.007,0h-3.33v-2.521h-8.915v2.521
	H44.992v-2.521h-8.997L34.495,362.876z M69.904,364.503v-0.895h5.082v0.895H69.904z M61.572,355.803v-0.813h13.581v0.813
	L61.572,355.803z M29.08,355.803v-0.813h21.911v0.813L29.08,355.803z M84.983,341.979c0.391-2.913,2.894-5.076,5.832-5.041h0.503
	c1.462-2.212,3.928-3.553,6.58-3.575c4.181-0.053,7.613,3.295,7.666,7.476c0,0.028,0,0.058,0,0.087
	c0.014,0.354-0.014,0.708-0.083,1.056L84.983,341.979z M85.983,341.085h18.746v-0.244c-0.066-3.718-3.113-6.688-6.831-6.661
	c-2.394,0.026-4.628,1.207-5.999,3.171l-0.251,0.406l-0.502-0.081h-0.418c-2.141,0.027-4.037,1.391-4.744,3.412V341.085z"/>
</svg>
