<svg height="45" viewBox="0 0 66 45" width="66" xmlns="http://www.w3.org/2000/svg"><g fill="#333" transform=""><path d="m60 20.7789906v2.6266895 16.6513356c0 3.2364567-.9764792 4.2214653-4.1384118 4.2214653-4.4174059 0-8.8348118 0-13.2522176 0-2.4644475 0-3.7664198-1.3133448-3.8129188-3.846224 0-2.5328792 0-5.0657584 0-7.7393531-4.1849108 1.1257241-8.2303246 1.1726292-12.3687364-.0938104v6.2383877c0 .7973879.046499 1.641681-.046499 2.4390689-.139497 1.7823965-1.3484713 2.9550257-3.1154336 2.9550257-4.882396 0-9.764792 0-14.64718791 0-1.85996037 0-3.34792866-1.3602499-3.34792866-3.1895516-.04649901-6.613629 0-13.2272581 0-19.7939819 0-.0938104.04649901-.2345259.13949702-.3752414 2.88293857.3752414 5.53338205-.3752414 7.85833255-2.1107327 4.2779088 2.9081206 8.5558177 2.9550258 12.8337265 0 4.2314099 2.9550258 8.5093187 2.9550258 12.5547325.1876207 1.7204633.6566724 3.3014296 1.4071551 4.928895 1.7823965 2.6039445.6097672 5.068392-.0469052 7.3468434-1.4540603.2789941-.1876207.7904832-.3283362.9764792-.1876207 2.4179485 1.6885862 5.068392 2.2514482 8.0908276 1.6885862zm-44.2205577 5.3940946c-.5579881 0-1.1624752 0-1.7204633 0-1.7669624.0469051-2.6969426.9850086-2.7434416 2.767405v3.3771723c.046499 1.641681.9764792 2.6735947 2.5574455 2.7204999 1.0694772.0469052 2.1854534 0 3.2549307 0 2.0924554 0 3.0224356-.9381034 3.0224356-3.0957412 0-.4690518 0-.9381035 0-1.4071552 0-3.9869395-.3719921-4.3621808-4.3709069-4.3621808zm37.8966925 4.409086c0-.562862 0-1.0788189 0-1.641681-.0464991-1.8293016-.9299802-2.7204999-2.6969426-2.767405-1.1624752 0-2.3249504 0-3.4874257 0-1.5809663.0469051-2.5574455.9381034-2.6504435 2.5328792-.046499 1.2664396-.046499 2.485974 0 3.7524136.092998 1.641681 1.0694772 2.5797844 2.6969425 2.6266896 1.0229782.0469052 2.0924555 0 3.1154337 0 2.1389544 0 2.9759365-.8911983 3.0224356-3.0957413 0-.4690517 0-.9381034 0-1.4071551z"/><path d="m52.2827149 15.6567305c-3.7269611 4.1872651-9.3174028 4.0052101-12.7182548-.1365413-3.354265 4.1417514-9.1776417 4.3693202-12.8114288-.0910275-1.6305455 2.0026051-3.6337871 3.2314764-6.3358339 3.2314764s-4.7518754-1.1378438-6.4290079-3.2769901c-.2795221.3185962-.5124572.5916787-.7919793.8647612-2.0964156 2.0936326-4.61211435 2.8673664-7.54709623 2.1846601-2.93498188-.72822-4.70528841-2.5942838-5.54385466-5.4161364-.23293507-.7737338-.09317403-1.4109263.55904417-2.0026051 3.0281559-2.8673663 6.0097248-5.82576014 8.99129369-8.73864023 1.53737143-1.54746755 3.40085203-2.27568757 5.54385463-2.27568757h35.6390657c2.1895896 0 4.0064832.72822002 5.5438547 2.23017382 3.0281559 2.95839384 6.1028988 5.91678768 9.1310547 8.96620898.3261091.3185963.5590441 1.0013026.4658701 1.4564401-.5590441 2.9128801-2.3293507 4.8699714-5.1711585 5.7347327-2.8883949.8647612-5.4972677.2275687-7.7334443-1.8660638-.2795221-.2730826-.5590442-.5916788-.7919793-.8647613zm-25.3899226-13.69963919c-2.2361766 0-4.2860053-.04551375-6.3824209.04551375-.2795221 0-.6522182.45513752-.7919792.77373377-1.2112624 2.77633884-2.3759377 5.59819143-3.4940261 8.42004397-.186348.4096238-.232935.9557888-.139761 1.4109263.3726961 2.0481188 2.2827637 3.5500726 4.3791793 3.5045589 2.1430026-.0910275 3.9133092-1.5929813 4.2394183-3.6866139.139761-.72822.232935-1.5019538.4192831-2.2301738.5590442-2.68531132 1.1180883-5.37062265 1.7703065-8.23798899zm12.6250808 0c0 .22756876-.046587.36411001-.046587.45513751.6988052 3.41353136 1.3976104 6.82706271 2.1430026 10.19508028.4192832 2.0481188 2.2361767 3.4590451 4.3325923 3.4590451 2.0498286 0 3.8201352-1.4109263 4.2394183-3.3680176.093174-.4551375.093174-1.0013025-.093174-1.4109263-1.1646754-2.86736629-2.3293507-5.73473263-3.5872001-8.60209897-.139761-.27308251-.5124572-.68270627-.7453922-.68270627-2.0964157-.0910275-4.1928313-.04551375-6.2426599-.04551375z"/></g></svg>